<svg width="20" height="15" viewBox="0 0 20 15" fill="none" xmlns="http://www.w3.org/2000/svg">
<path fill-rule="evenodd" clip-rule="evenodd" d="M14.2729 0.417479C14.7626 0.117093 15.4052 0.267199 15.7082 0.75275L19.5273 6.87378C19.6647 7.0549 19.7375 7.27563 19.7368 7.49954C19.7375 7.72344 19.6647 7.94417 19.5273 8.1253L15.7082 14.2463C15.4052 14.7319 14.7626 14.882 14.2729 14.5816C13.7832 14.2812 13.6319 13.6441 13.9348 13.1585L16.823 8.52952H1.04268C0.466846 8.52952 4.04176e-05 8.06667 4.04176e-05 7.49571C4.04176e-05 6.92476 0.466846 6.4619 1.04268 6.4619H16.8182L13.9348 1.84054C13.6319 1.35499 13.7832 0.717865 14.2729 0.417479Z" fill="#00ff62"/>
</svg>
