<svg width="20" height="20" viewBox="0 0 20 20" fill="none" xmlns="http://www.w3.org/2000/svg">
<path fill-rule="evenodd" clip-rule="evenodd" d="M0.165646 4.49261C0.368505 4.30525 0.684838 4.31782 0.872195 4.52068L10.3673 14.8014C10.5546 15.0042 10.5421 15.3206 10.3392 15.5079C10.1363 15.6953 9.82001 15.6827 9.63266 15.4799L0.137577 5.19916C-0.0497802 4.9963 -0.0372134 4.67997 0.165646 4.49261Z" fill="#212121"/>
<path fill-rule="evenodd" clip-rule="evenodd" d="M9.66076 15.5079C9.4579 15.3206 9.44534 15.0042 9.63269 14.8014L19.1278 4.52068C19.3151 4.31782 19.6315 4.30526 19.8343 4.49261C20.0372 4.67997 20.0497 4.9963 19.8624 5.19916L10.3673 15.4799C10.18 15.6827 9.86362 15.6953 9.66076 15.5079Z" fill="#212121"/>
</svg>
