<svg width="57" height="17" viewBox="0 0 57 17" fill="none" xmlns="http://www.w3.org/2000/svg">
<path fill-rule="evenodd" clip-rule="evenodd" d="M50.5137 0.15184C50.9822 -0.140609 51.5991 0.00210977 51.8915 0.47061L56.5179 7.88201C56.6558 8.0597 56.7288 8.27839 56.728 8.50016C56.7288 8.72192 56.6558 8.94058 56.5179 9.11826L51.8915 16.5297C51.5991 16.9982 50.9822 17.1409 50.5137 16.8484C50.0452 16.556 49.9025 15.9391 50.195 15.4706L53.9247 9.49552L1.50003 9.49734C0.94775 9.49736 0.500019 9.04966 0.5 8.49737C0.499981 7.94509 0.947681 7.49736 1.49997 7.49734L53.919 7.49552L50.195 1.52966C49.9025 1.06116 50.0452 0.444288 50.5137 0.15184Z" fill="#00FF62"/>
</svg>
